<svg xmlns="http://www.w3.org/2000/svg" version="1.1" viewBox="0 0 177.347 130">
	<path d="m 66.511666,102.29697 c -5.031907,2.43462 -11.605118,3.65327 -19.712967,3.65327 -10.575803,0 -18.892981,-3.10928 -24.950202,-9.327829 C 15.791277,90.406527 12.762,82.121348 12.762,71.769541 c 0,-11.027795 3.40527,-19.971628 10.21581,-26.827501 6.81054,-6.858539 15.649042,-10.287808 26.514173,-10.287808 6.731874,0 12.405102,0.847984 17.019683,2.546619 v 14.950388 c -4.614581,-2.754615 -9.87315,-4.131923 -15.76904,-4.131923 -6.474546,0 -11.699782,2.035962 -15.674375,6.106553 -3.973259,4.069258 -5.959889,9.582488 -5.959889,16.537026 0,6.666542 1.874632,11.979776 5.626562,15.939703 3.74793,3.954593 8.795836,5.934556 15.142385,5.934556 6.05722,0 11.60245,-1.474639 16.634357,-4.425251 z" />
	<path d="M 131.76178,64.190215 H 112.09815 V 120.4865 H 96.521107 V 64.190215 H 76.956138 V 51.545117 h 54.805642 z" />
	<path d="M 164.58464,104.74746 H 123.24008 V 35.806077 H 162.998 v 12.643765 h -24.23021 v 15.338381 h 22.54624 v 12.594432 h -22.54624 v 15.769039 h 25.81685 z" />
	<path d="m 97.177095,18.65333 c 0,-5.050573 -4.087924,-9.13983 -9.138497,-9.13983 -5.045239,0 -9.142496,4.089257 -9.142496,9.13983 0,5.047906 4.097257,9.141163 9.142496,9.141163 5.050573,0 9.138497,-4.093257 9.138497,-9.141163" />
	<path d="m 88.132071,34.657965 -19.019646,3.085276 -0.727986,2.241291 c 0.783985,-0.04 1.455973,-0.05333 2.019962,-0.05333 v 0 c 1.233311,0 2.206626,0.317327 2.915946,0.950648 v 0 c 0.711987,0.637322 1.06398,1.367975 1.06398,2.187959 v 0 c 0,1.309309 -0.371993,3.257273 -1.119979,5.831892 v 0 L 65.46716,75.722534 c -0.635988,2.129293 -0.957316,3.885261 -0.957316,5.273235 v 0 c 0,2.093294 0.722654,3.822595 2.161293,5.189236 v 0 c 1.441307,1.361308 3.377271,2.043962 5.807892,2.043962 v 0 c 6.358548,0 12.362437,-4.913241 18.010331,-14.749058 v 0 l -1.907964,-1.126646 c -2.354623,3.631932 -4.377252,6.135886 -6.059887,7.51986 v 0 c -0.635988,0.55999 -1.271976,0.843984 -1.907965,0.843984 v 0 c -0.371993,0 -0.726653,-0.179996 -1.066646,-0.538656 v 0 c -0.338661,-0.35466 -0.505324,-0.734653 -0.505324,-1.143979 v 0 c 0,-0.714653 0.319994,-2.210626 0.955982,-4.490583 v 0 L 91.498675,34.657965 Z" />
</svg>
